<?xml version="1.0" encoding="UTF-8"?>
<svg width="19px" height="19px" viewBox="0 0 19 19" version="1.1" xmlns="http://www.w3.org/2000/svg" xmlns:xlink="http://www.w3.org/1999/xlink">
    <!-- Generator: Sketch 58 (84663) - https://sketch.com -->
    <title>Twitter</title>
    <desc>Created with Sketch.</desc>
    <g id="Symbols" stroke="none" stroke-width="1" fill="none" fill-rule="evenodd">
        <g id="D/Footer" transform="translate(-174.000000, -131.000000)" fill="#3A3A3A" fill-rule="nonzero">
            <g id="icons" transform="translate(64.000000, 131.000000)">
                <path d="M119.5,0 C124.746705,0 129,4.25329488 129,9.5 C129,14.7467051 124.746705,19 119.5,19 C114.253295,19 110,14.7467051 110,9.5 C110,4.25329488 114.253295,0 119.5,0 Z M122.037356,5.5 C120.76341,5.5 119.728927,6.51780105 119.728927,7.77120419 C119.728927,7.95026178 119.748084,8.12460733 119.791188,8.2895288 C117.87069,8.19528796 116.170498,7.29057592 115.030651,5.91465969 C114.834291,6.24921466 114.719349,6.64031414 114.719349,7.05497382 C114.719349,7.84188482 115.126437,8.53926702 115.749042,8.94450262 C115.37069,8.93507853 115.016284,8.83141361 114.704981,8.6617801 L114.704981,8.69005236 L114.704981,8.69005236 C114.704981,9.79267016 115.5,10.7068063 116.558429,10.9188482 C116.366858,10.9706806 116.16092,10.9989529 115.950192,10.9989529 C115.801724,10.9989529 115.658046,10.9848168 115.514368,10.9565445 C115.806513,11.8612565 116.659004,12.5162304 117.66954,12.5350785 C116.87931,13.1429319 115.883142,13.5057592 114.800766,13.5057592 C114.613985,13.5057592 114.431992,13.4963351 114.25,13.4727749 C115.260536,14.1230366 116.477011,14.5 117.779693,14.5 C122.027778,14.5 124.350575,11.0366492 124.350575,8.03507853 C124.350575,7.93612565 124.350575,7.83717277 124.345785,7.74293194 C124.795977,7.42251309 125.188697,7.02198953 125.5,6.56492147 C125.088123,6.74397906 124.64272,6.86649215 124.173372,6.92303665 C124.652299,6.64031414 125.016284,6.1973822 125.188697,5.66492147 C124.743295,5.92408377 124.25,6.11256545 123.72318,6.21623037 C123.301724,5.77329843 122.703065,5.5 122.037356,5.5 Z" id="Twitter"></path>
            </g>
        </g>
    </g>
</svg>