<?xml version="1.0" encoding="UTF-8"?>
<svg width="19px" height="19px" viewBox="0 0 49 36" version="1.1" xmlns="http://www.w3.org/2000/svg" xmlns:xlink="http://www.w3.org/1999/xlink">
    <title>YouTube</title>
    <path d="M25.03 0c2.733.012 15.217.118 18.614 1.074 2.109.591 3.769 2.334 4.332 4.547.97 3.796 1.021 11.494 1.024 12.308v.14c-.003.815-.054 8.513-1.024 12.31-.563 2.212-2.223 3.955-4.332 4.547C39.93 35.97 25.342 35.999 24.534 36h-.07c-.807 0-15.394-.03-19.109-1.074-2.108-.592-3.769-2.335-4.332-4.547-.97-3.797-1.021-11.495-1.024-12.31v-.14c.003-.814.055-8.512 1.024-12.308.563-2.213 2.224-3.956 4.332-4.547C8.752.118 21.236.012 23.969 0zm-4.614 10.588v14.824L33.687 18l-13.27-7.412z" fill="#3A3A3A" fill-rule="evenodd"/>
</svg>