<?xml version="1.0" encoding="UTF-8"?><svg width="18" height="18" xmlns="http://www.w3.org/2000/svg"><g fill="none" fill-rule="evenodd"><path d="M17.912 9.01c0-4.976-4.01-9.01-8.956-9.01S0 4.034 0 9.01c0 4.498 3.275 8.226 7.557 8.902v-6.297H5.283V9.011h2.274V7.025c0-2.258 1.337-3.505 3.382-3.505.98 0 2.005.176 2.005.176v2.217h-1.13c-1.112 0-1.459.695-1.459 1.407v1.69h2.484l-.397 2.605h-2.087v6.297c4.282-.676 7.557-4.404 7.557-8.901" fill="#1877F2"></path><path d="M12.379 11.483l.392-2.614h-2.45V7.173c0-.715.342-1.413 1.44-1.413h1.113V3.535s-1.01-.177-1.977-.177c-2.018 0-3.337 1.252-3.337 3.519v1.992H5.318v2.614H7.56v6.319a8.697 8.697 0 0 0 2.76 0v-6.32h2.059" fill="#FFF"></path></g></svg>