<?xml version="1.0" encoding="UTF-8"?>
<svg width="22px" height="22px" viewBox="0 0 22 22" version="1.1" xmlns="http://www.w3.org/2000/svg" xmlns:xlink="http://www.w3.org/1999/xlink">
    <title>Group</title>
    <defs>
        <radialGradient cx="19.2474387%" cy="99.4651948%" fx="19.2474387%" fy="99.4651948%" r="108.959588%" id="radialGradient-1">
            <stop stop-color="#0099FF" offset="0%"></stop>
            <stop stop-color="#A033FF" offset="60.9753877%"></stop>
            <stop stop-color="#FF5280" offset="93.482299%"></stop>
            <stop stop-color="#FF7061" offset="100%"></stop>
        </radialGradient>
    </defs>
    <g id="Logo" stroke="none" stroke-width="1" fill="none" fill-rule="evenodd">
        <g id="logo" transform="translate(-112.000000, -122.000000)">
            <g id="Group" transform="translate(112.000000, 122.000000)">
                <path d="M11,1.56319402e-15 C4.80337,1.56319402e-15 0,4.53904 0,10.67 C0,13.876896 1.31428,16.648016 3.454616,18.56206 C3.63429,18.72288 3.74275,18.94816 3.75012,19.18928 L3.810026,21.14596 C3.829166,21.7701 4.473854,22.17622 5.044974,21.9241 L7.22832,20.96028 C7.413406,20.87866 7.6208,20.86348 7.81583,20.91716 C8.81914,21.19304 9.886976,21.34 11,21.34 C17.19663,21.34 22,16.80096 22,10.67 C22,4.53904 17.19663,1.56319402e-15 11,1.56319402e-15 Z" id="Path" fill="url(#radialGradient-1)"></path>
                <path d="M4.394544,13.790392 L7.625794,8.663952 C8.13978,7.848412 9.24044,7.645352 10.01165,8.223732 L12.581624,10.151218 C12.81742,10.328098 13.141854,10.327152 13.37666,10.148952 L16.847534,7.514782 C17.31081,7.163222 17.915524,7.717622 17.6055,8.209608 L14.37425,13.336092 C13.86022,14.151588 12.75956,14.354692 11.988394,13.776268 L9.418354,11.848738 C9.18258,11.671902 8.858124,11.672848 8.62334,11.851048 L5.152444,14.485218 C4.68919,14.836756 4.084454,14.282356 4.394544,13.790392 Z" id="Path" fill="#FFFFFF"></path>
            </g>
        </g>
    </g>
</svg>