<?xml version="1.0" encoding="UTF-8"?>
<svg width="52px" height="31px" viewBox="0 0 52 31" version="1.1" xmlns="http://www.w3.org/2000/svg" xmlns:xlink="http://www.w3.org/1999/xlink">
    <!-- Generator: Sketch 58 (84663) - https://sketch.com -->
    <title>Oculus</title>
    <desc>Created with Sketch.</desc>
    <g id="Homepage" stroke="none" stroke-width="1" fill="none" fill-rule="evenodd">
        <g id="D_FB_Vision_Homepage_09182019" transform="translate(-818.000000, -1888.000000)" fill="#000000" fill-rule="nonzero">
            <g id="2.What-We-Build" transform="translate(0.000000, 1639.000000)">
                <g id="FOA-icons" transform="translate(402.000000, 239.000000)">
                    <path d="M462.166988,13.5133869 C460.336113,12.0665997 458.243466,11.0590696 455.967834,10.5165663 C454.659994,10.20666 453.352153,10.0774766 452.018051,10.0257697 C451.023997,10 450.030113,10 449.036229,10 C444.354164,10 439.645836,10 434.963771,10 C433.969887,10 432.975833,10 431.981949,10.0257697 C430.648016,10.0774766 429.340176,10.20666 428.032166,10.5165663 C425.756534,11.0590696 423.663887,12.0665997 421.833012,13.5133869 C418.144831,16.4325636 416,20.8500669 416,25.5 C416,30.1758701 418.144831,34.5676037 421.833012,37.4867805 C423.663887,38.9334003 425.756534,39.9409304 428.032166,40.4834337 C429.340006,40.7935074 430.648016,40.9225234 431.981949,40.9742303 C432.976003,41 433.970056,41 434.963771,41 C439.646006,41 444.354164,41 449.036229,41 C450.030283,41 451.024167,41 452.018051,40.9742303 C453.352153,40.9225234 454.659994,40.79334 455.967834,40.4834337 C458.243466,39.9409304 460.336113,38.9334003 462.166988,37.4867805 C465.855169,34.5676037 468,30.1501004 468,25.5 C468,20.8241299 465.855169,16.4325636 462.166988,13.5133869 Z M455.942203,30.2933731 C455.228699,30.7751365 454.462299,31.0694993 453.616639,31.2033321 C452.77098,31.3371649 451.951683,31.3102943 451.106023,31.3102943 C445.371116,31.3102943 439.609845,31.3102943 433.874938,31.3102943 C433.029278,31.3102943 432.210152,31.3369915 431.364322,31.2033321 C430.518662,31.0694993 429.752262,30.7751365 429.038758,30.2933731 C427.637941,29.303149 426.792453,27.6973288 426.792453,25.984373 C426.792453,24.2448933 427.638112,22.6388997 429.038758,21.6753729 C429.752262,21.1937828 430.518662,20.8992466 431.364322,20.7655872 C432.209981,20.6315811 433.029278,20.6584516 433.874938,20.6584516 C439.609845,20.6584516 445.371116,20.6584516 451.106023,20.6584516 C451.951683,20.6584516 452.77098,20.6315811 453.616639,20.7655872 C454.462299,20.8992466 455.228699,21.1937828 455.942203,21.6753729 C457.34302,22.6655969 458.188679,24.2715905 458.188679,25.984373 C458.188679,27.724026 457.34302,29.3298462 455.942203,30.2933731 Z" id="Oculus"></path>
                </g>
            </g>
        </g>
    </g>
</svg>