<?xml version="1.0" encoding="UTF-8"?>
<svg width="51px" height="51px" viewBox="0 0 51 51" version="1.1" xmlns="http://www.w3.org/2000/svg" xmlns:xlink="http://www.w3.org/1999/xlink">
    <!-- Generator: Sketch 58 (84663) - https://sketch.com -->
    <title>WhatsApp</title>
    <desc>Created with Sketch.</desc>
    <defs>
        <linearGradient x1="49.9999303%" y1="100.000083%" x2="49.9999303%" y2="9.08186729e-05%" id="linearGradient-1">
            <stop stop-color="#1FAF38" offset="0%"></stop>
            <stop stop-color="#60D669" offset="100%"></stop>
        </linearGradient>
        <linearGradient x1="50.0000187%" y1="99.9999404%" x2="50.0000187%" y2="-0.000105428273%" id="linearGradient-2">
            <stop stop-color="#F9F9F9" offset="0%"></stop>
            <stop stop-color="#FFFFFF" offset="100%"></stop>
        </linearGradient>
    </defs>
    <g id="Homepage" stroke="none" stroke-width="1" fill="none" fill-rule="evenodd">
        <g id="D_FB_Vision_Homepage_09182019" transform="translate(-651.000000, -1878.000000)">
            <g id="2.What-We-Build" transform="translate(0.000000, 1639.000000)">
                <g id="FOA-icons" transform="translate(402.000000, 239.000000)">
                    <g id="WhatsApp" transform="translate(249.000000, 0.000000)">
                        <path d="M1.58181188,24.4851801 C1.58051703,28.5454616 2.67148471,32.5101546 4.74594774,36.0044603 L4.74594774,36.0044603 L1.38346482,47.9445591 L13.947721,44.7406824 C17.4092008,46.5752959 21.3066911,47.5436595 25.2730437,47.5449188 L25.2730437,47.5449188 L25.2836379,47.5449188 C38.3453508,47.5449188 48.978048,37.2079603 48.9834648,24.5032675 L48.9834648,24.5032675 C48.9860525,18.3464484 46.5230176,12.5574448 42.0479077,8.20226971 L42.0479077,8.20226971 C37.5736218,3.8470946 31.622857,1.44742104 25.2825785,1.44455911 L25.2825785,1.44455911 C12.2192176,1.44455911 1.5872267,11.7806017 1.58181188,24.4851801" id="Path" fill="url(#linearGradient-1)"></path>
                        <path d="M0.317433751,24.8473554 C0.315745925,29.2140965 1.47335349,33.4766215 3.67355532,37.2339891 L3.67355532,37.2339891 L0.106334934,50.0725431 L13.4358207,46.6274676 C17.1082891,48.6015145 21.2433424,49.6418938 25.4513339,49.6435575 L25.4513339,49.6435575 L25.4621842,49.6435575 C39.3195979,49.6435575 50.6004245,38.527363 50.6063349,24.8674381 L50.6063349,24.8674381 C50.6086225,18.2466804 47.9953856,12.0217541 43.2483748,7.33856177 L43.2483748,7.33856177 C38.5008817,2.65560712 32.18793,0.0753951226 25.4621842,0.0725431405 L25.4621842,0.0725431405 C11.6021183,0.0725431405 0.323100024,11.1865987 0.317433751,24.8473554 L0.317433751,24.8473554 Z M8.25515918,36.5871833 L7.75785328,35.8082357 C5.66555176,32.5291692 4.56111072,28.7399545 4.56267632,24.8489002 L4.56267632,24.8489002 C4.56725922,13.4945652 13.942048,4.25723275 25.4699,4.25723275 L25.4699,4.25723275 C31.0523847,4.2596094 36.298992,6.40429996 40.2451294,10.2965426 L40.2451294,10.2965426 C44.1910256,14.1887852 46.3622933,19.3629938 46.3607269,24.8657744 L46.3607269,24.8657744 C46.3556625,36.2204659 36.9807532,45.4589867 25.4621842,45.4589867 L25.4621842,45.4589867 L25.4538657,45.4589867 C21.7030339,45.4570854 18.0250198,44.4645956 14.8168241,42.5881102 L14.8168241,42.5881102 L14.0533239,42.1420127 L6.14332709,44.1861709 L8.25515918,36.5871833 Z" id="Fill-10" fill="url(#linearGradient-2)"></path>
                        <path d="M18.9831998,13.8649943 C18.513312,12.8046287 18.0185032,12.7833701 17.5713693,12.7649215 C17.2057405,12.7489165 16.7870191,12.75 16.3691403,12.75 C15.9507801,12.75 15.2710499,12.9094557 14.6961808,13.5466036 C14.1209504,14.1836293 12.5,15.7239022 12.5,18.8563728 C12.5,21.9890877 14.7484307,25.0161204 15.0618096,25.4412929 C15.3755497,25.8658545 19.4021621,32.4995228 25.7791766,35.0515352 C31.0790489,37.1725106 32.1575155,36.7506369 33.3078558,36.644466 C34.4581961,36.5384172 37.0196445,35.1046818 37.542625,33.617922 C38.065485,32.1314065 38.065485,30.8571108 37.908615,30.5907671 C37.7517449,30.3256452 37.333505,30.1663277 36.7060248,29.847937 C36.0785446,29.5295463 32.9941157,27.9890291 32.4190058,27.7768094 C31.8437754,27.5645897 31.4255355,27.4584187 31.0071753,28.0959331 C30.588815,28.7325923 29.3871879,30.1663277 29.0210775,30.5907671 C28.6550875,31.0164283 28.2890975,31.0693305 27.6616173,30.751062 C27.0341371,30.431694 25.013487,29.7600925 22.6163729,27.5911018 C20.7512686,25.9036069 19.4920945,23.8195286 19.1261045,23.1821364 C18.7599941,22.5452329 19.0867365,22.2004522 19.4015601,21.8829167 C19.6831557,21.5977579 20.0290403,21.1397201 20.3426601,20.7679385 C20.6557982,20.3962791 20.7604184,20.1309128 20.9695383,19.7063512 C21.1786583,19.2811787 21.0741585,18.9093971 20.9172884,18.5910065 C20.7604184,18.2726158 19.5410938,15.1238958 18.9831998,13.8649943" id="Fill-14" fill="#FFFFFF"></path>
                    </g>
                </g>
            </g>
        </g>
    </g>
</svg>