<svg xmlns="http://www.w3.org/2000/svg" width="16442" height="16442" viewBox="0 0 16442 16442"><g transform="translate(-1003 -44.524)"><path d="M8221,200c-1082.915,0-2133.333,212.046-3122.074,630.248C4143.815,1234.227,3286,1812.6,2549.3,2549.3S1234.227,4143.815,830.248,5098.926C412.046,6087.667,200,7138.085,200,8221s212.046,2133.332,630.248,3122.074C1234.227,12298.185,1812.6,13156,2549.3,13892.7s1594.52,1315.069,2549.63,1719.048C6087.667,16029.954,7138.085,16242,8221,16242s2133.332-212.046,3122.074-630.248c955.11-403.979,1812.93-982.35,2549.63-1719.048s1315.069-1594.52,1719.048-2549.63C16029.954,10354.332,16242,9303.915,16242,8221s-212.046-2133.333-630.248-3122.074C15207.773,4143.815,14629.4,3286,13892.7,2549.3s-1594.52-1315.069-2549.63-1719.048C10354.332,412.046,9303.915,200,8221,200m0-200c4540.332,0,8221,3680.667,8221,8221s-3680.668,8221-8221,8221S0,12761.332,0,8221,3680.667,0,8221,0Z" transform="translate(1003 44.524)" fill="#fff" opacity="0.53"/><path d="M2673.367,231.08c61.112-103.736,211.154-103.736,272.266,0L5478.673,4530.8c62.05,105.327-13.887,238.2-136.133,238.2H276.46c-122.246,0-198.183-132.871-136.133-238.2Z" transform="translate(12391 5459.524) rotate(90)" fill="#fff"/></g></svg>